{"title":"The Dark Knight-PS3-1280X720","uid":5476035,"size":4287833525,"categoryP":"video","categoryS":"hd___movies","magnet":"?xt=urn:btih:ab20ce74c41326dfd8bc1307b9947c0aeb9555ee&amp;dn=The+Dark+Knight-PS3-1280X720&amp;tr=udp%3A%2F%2Ftracker.openbittorrent.com%3A80&amp;tr=udp%3A%2F%2Fopen.demonii.com%3A1337&amp;tr=udp%3A%2F%2Ftracker.coppersurfer.tk%3A6969&amp;tr=udp%3A%2F%2Fexodus.desync.com%3A6969","seeders":0,"leechers":1,"uploader":"biglargo","files":-1,"time":1270151030,"description":"Set within a year after the events of Batman Begins, Batman, Lieutenant James Gordon, and new district attorney Harvey Dent successfully begin to round up the criminals that plague Gotham City until a mysterious and sadistic criminal mastermind known only as the Joker appears in Gotham, creating a new wave of chaos. Batman's struggle against the Joker becomes deeply personal, forcing him to &quot;confront everything he believes&quot; and improve his technology to stop him. A love triangle develops between Bruce Wayne, Dent and Rachel Dawes.\n\nGeneral\nID                               : 1\nComplete name                    : The Dark Knight.m2ts\nFormat                           : BDAV\nFormat/Info                      : Blu-ray Video\nFile size                        : 3.99 GiB\nDuration                         : 2h 32mn\nOverall bit rate                 : 3 755 Kbps\nMaximum Overall bit rate         : 35.5 Mbps\n\nVideo\nID                               : 4113 (0x1011)\nMenu ID                          : 1 (0x1)\nFormat                           : AVC\nFormat/Info                      : Advanced Video Codec\nFormat profile                   : &lt;a class=&quot;__cf_email__&quot; href=&quot;/cdn-cgi/l/email-protection&quot; data-cfemail=&quot;4d05242a250d0179637d&quot;&gt;[email&amp;#160;protected]&lt;/a&gt;&lt;script cf-hash='f9e31' type=&quot;text/javascript&quot;&gt;\n/* &lt;![CDATA[ */!function(){try{var t=&quot;currentScript&quot;in document?document.currentScript:function(){for(var t=document.getElementsByTagName(&quot;script&quot;),e=t.length;e--;)if(t[e].getAttribute(&quot;cf-hash&quot;))return t[e]}();if(t&amp;&amp;t.previousSibling){var e,r,n,i,c=t.previousSibling,a=c.getAttribute(&quot;data-cfemail&quot;);if(a){for(e=&quot;&quot;,r=parseInt(a.substr(0,2),16),n=2;a.length-n;n+=2)i=parseInt(a.substr(n,2),16)^r,e+=String.fromCharCode(i);e=document.createTextNode(e),c.parentNode.replaceChild(e,c)}}}catch(u){}}();/* ]]&gt; */&lt;/script&gt;\nFormat settings, CABAC           : Yes\nFormat settings, ReFrames        : 3 frames\nDuration                         : 2h 32mn\nBit rate                         : 2 957 Kbps\nNominal bit rate                 : 2 858 Kbps\nWidth                            : 1 280 pixels\nHeight                           : 720 pixels\nDisplay aspect ratio             : 16:9\nFrame rate                       : 23.976 fps\nResolution                       : 8 bits\nColorimetry                      : 4:2:0\nScan type                        : Progressive\nBits/(Pixel*Frame)               : 0.134\nStream size                      : 3.14 GiB (79%)\nWriting library                  : x264 core 80 r1376kGIT 3feaec2\n\n\nAudio\nID                               : 4352 (0x1100)\nMenu ID                          : 1 (0x1)\nFormat                           : AC-3\nFormat/Info                      : Audio Coding 3\nDuration                         : 2h 32mn\nBit rate mode                    : Constant\nBit rate                         : 640 Kbps\nChannel(s)                       : 6 channels\nChannel positions                : Front: L C R, Side: L R, LFE\nSampling rate                    : 48.0 KHz\nStream size                      : 697 MiB (17%)\n &lt;a href=&quot;\nhttp://bayimg.com/GALAIaaCk&quot; rel=&quot;nofollow&quot; target=&quot;_NEW&quot;&gt;\nhttp://bayimg.com/GALAIaaCk&lt;/a&gt;\nhttp://bayimg.com/GaLAlAAcK\nhttp://bayimg.com/GalANaaCK","torrent":{"xt":"urn:btih:ab20ce74c41326dfd8bc1307b9947c0aeb9555ee","amp;dn":"The+Dark+Knight-PS3-1280X720","amp;tr":["udp%3A%2F%2Ftracker.openbittorrent.com%3A80","udp%3A%2F%2Fopen.demonii.com%3A1337","udp%3A%2F%2Ftracker.coppersurfer.tk%3A6969","udp%3A%2F%2Fexodus.desync.com%3A6969"],"infoHash":"ab20ce74c41326dfd8bc1307b9947c0aeb9555ee","infoHashBuffer":{"type":"Buffer","data":[171,32,206,116,196,19,38,223,216,188,19,7,185,148,124,10,235,149,85,238]},"announce":[],"urlList":[]}}